<svg role="img" viewBox="0 0 24 24" xmlns="http://www.w3.org/2000/svg"><title>J.P. Morgan</title><path d="M2.459 9.601H1.054v.118h.447v2.3c0 .686-.194.886-.629.886a.291.288 0 0 1-.32-.312c0-.25-.014-.404-.246-.404s-.258.233-.258.303c0 .317.141.559.781.559.762 0 1.174-.254 1.174-1.094v-2.24h.47zm.185 2.914a.263.26 0 0 0-.195.077.263.26 0 0 0-.081.194.263.26 0 0 0 .08.189.284.281 0 0 0 .395 0 .263.26 0 0 0 .08-.189.273.27 0 0 0-.267-.27Zm3.118 0a.269.266 0 0 0-.274.26v.01a.253.25 0 0 0 .086.19c.052.05.123.078.196.078a.273.27 0 0 0 .198-.079.253.25 0 0 0 .082-.188.263.26 0 0 0-.08-.194.263.26 0 0 0-.193-.077m-.984-2.914H3.408v.118h.403v2.625a.808.8 0 0 1-.036.317.273.27 0 0 1-.173.154.808.8 0 0 1-.263.043v.11h1.474v-.11a1.01 1 0 0 1-.283-.04.283.28 0 0 1-.173-.154.505.5 0 0 1-.037-.214v-.898h.367c1.064 0 1.364-.415 1.364-.98 0-.563-.18-.971-1.258-.971m-.19 1.817h-.28V9.735h.253c.822-.004 1.016.327 1.016.869 0 .541-.323.826-.975.826m5.825 1.222a.707.7 0 0 1-.029-.23V9.718h.366v-.109h-.88l-1.044 2.564a.02.02 0 0 1-.02.015.03.03 0 0 1-.027-.015s-1.1-2.534-1.112-2.564h-.97v.106h.424v2.842a.364.36 0 0 1-.057.172.323.32 0 0 1-.156.11.808.8 0 0 1-.202.018v.11h.96v-.11a.505.5 0 0 1-.174-.025.303.3 0 0 1-.173-.108.364.36 0 0 1-.06-.172l-.01-.236v-2.244h.058s1.253 2.86 1.253 2.893h.121l1.18-2.87h.032v2.314a.91.9 0 0 1-.03.237.283.28 0 0 1-.147.156.707.7 0 0 1-.243.04v.11h1.342v-.11a.707.7 0 0 1-.25-.044.273.27 0 0 1-.149-.171m1.806-2.126c-.717 0-1.174.468-1.174 1.286 0 1.2.948 1.277 1.15 1.277.405 0 1.174-.248 1.174-1.3 0-.826-.49-1.263-1.155-1.263m0 2.414c-.54 0-.623-.264-.623-1.116 0-.66.041-1.155.623-1.155.626 0 .629.514.629 1.109 0 .857-.149 1.155-.629 1.155m3.034-2.372c-.43 0-.561.25-.682.504h-.034s-.062-.368-.085-.478h-.836v.125h.45v1.668a.808.8 0 0 1-.055.343q-.067.126-.32.125h-.073v.148h1.385v-.148h-.065c-.184 0-.262-.04-.31-.118a.707.7 0 0 1-.057-.35v-.869c0-.29.221-.622.488-.622s.273.423.589.254c.173-.093.141-.578-.392-.578m5.54 2.179c-.149 0-.197-.083-.206-.218v-1.315a.637.63 0 0 0-.173-.495q-.196-.192-.735-.194a1.273 1.26 0 0 0-.764.185.455.45 0 0 0-.22.387.202.2 0 0 0 .06.172.222.22 0 0 0 .153.053c.138 0 .215-.07.246-.249a.475.47 0 0 1 .109-.282.435.43 0 0 1 .334-.11.424.42 0 0 1 .368.139.606.6 0 0 1 .097.351v.403c-.445.04-1.498.122-1.45.912a.64.634 0 0 0 .657.57 1.091 1.08 0 0 0 .813-.397.465.46 0 0 0 .473.369c.324 0 .52-.158.54-.547h-.084c-.02.171-.126.26-.215.26m-.729-.253a.02.02 0 0 1 0 .017v.01a.91.9 0 0 1-.555.29.381.377 0 0 1-.394-.364.303.3 0 0 1 0-.056c0-.448.623-.672.962-.672zm3.575.241a.647.64 0 0 1-.086-.358v-1.089a.849.84 0 0 0-.082-.405.606.6 0 0 0-.245-.241.808.8 0 0 0-.367-.08.87.86 0 0 0-.792.465h-.054l-.085-.435h-.751v.125h.38v1.66q.004.142-.029.28a.222.22 0 0 1-.141.155.606.6 0 0 1-.21.034v.153h1.202v-.154a.303.3 0 0 1-.245-.102.647.64 0 0 1-.068-.342v-.633a1.516 1.5 0 0 1 .091-.686.546.54 0 0 1 .484-.267.344.34 0 0 1 .336.171q.088.275.081.563v.785q.014.146 0 .291a.232.23 0 0 1-.106.172.404.4 0 0 1-.192.05v.154h1.16v-.153q-.219-.014-.285-.111m-5.432-2.301a.232.23 0 0 0-.143.188q-.031.148-.108.172a.283.28 0 0 1-.173-.01 1.112 1.1 0 0 0-.788-.261.91.9 0 0 0-.975.823v.108c0 .514.199.752.633.843.029 0 .029.034 0 .038-.365.067-.693.171-.693.523a.4.395 0 0 0 .267.373c.232.08.476.117.722.112q.289-.003.578.026c.112.01.22.047.315.108a.333.33 0 0 1 .12.277.435.43 0 0 1-.263.386c-.204.1-.43.146-.656.135a1.081 1.07 0 0 1-.607-.132.323.32 0 0 1-.125-.342.2.197 0 0 0-.123-.249h-.027a.222.22 0 0 0-.207.093.404.4 0 0 0-.054.22.501.496 0 0 0 .402.467q.328.102.67.098c.264.012.524-.036.765-.14a.788.78 0 0 0 .485-.716.707.7 0 0 0-.115-.418c-.243-.33-.585-.285-1.359-.322-.37 0-.442-.065-.442-.172 0-.171.136-.231.67-.312s1.024-.272 1.024-.908a1.071 1.06 0 0 0-.097-.451.566.56 0 0 0 .305 0 .344.34 0 0 0 .216-.172.263.26 0 0 0 .041-.224q-.066-.214-.262-.154m-1.196 1.753c-.315 0-.504-.113-.504-.747 0-.448.158-.78.504-.78.394 0 .502.303.502.77 0 .661-.212.757-.502.757"/></svg>